<svg width="22" height="22" viewBox="0 0 22 22" fill="none" xmlns="http://www.w3.org/2000/svg">
<path d="M12.1549 3.30012L4.62907 11.2659C4.3449 11.5684 4.0699 12.1643 4.0149 12.5768L3.67574 15.5468C3.55657 16.6193 4.32657 17.3526 5.3899 17.1693L8.34157 16.6651C8.75407 16.5918 9.33157 16.2893 9.61574 15.9776L17.1416 8.01178C18.4432 6.63678 19.0299 5.06928 17.0041 3.15345C14.9874 1.25595 13.4566 1.92512 12.1549 3.30012V3.30012Z" stroke="#FAFAFA" stroke-width="1.5" stroke-miterlimit="10" stroke-linecap="round" stroke-linejoin="round"/>
<path d="M10.8992 4.62915C11.0913 5.85827 11.6862 6.98877 12.5904 7.84321C13.4946 8.69765 14.657 9.22764 15.895 9.34998M2.75 20.1667H19.25" stroke="#FAFAFA" stroke-width="1.5" stroke-miterlimit="10" stroke-linecap="round" stroke-linejoin="round"/>
</svg>
