<svg width="32" height="32" viewBox="0 0 32 32" fill="none" xmlns="http://www.w3.org/2000/svg">
<path fill-rule="evenodd" clip-rule="evenodd" d="M12 5C8.15228 5 5 8.15228 5 12V20C5 23.8477 8.15228 27 12 27H20C23.8477 27 27 23.8477 27 20V12C27 8.15228 23.8477 5 20 5H12ZM3 12C3 7.04772 7.04772 3 12 3H20C24.9523 3 29 7.04772 29 12V20C29 24.9523 24.9523 29 20 29H12C7.04772 29 3 24.9523 3 20V12ZM11 16C11 15.4477 11.4477 15 12 15H15V12C15 11.4477 15.4477 11 16 11C16.5523 11 17 11.4477 17 12V15H20C20.5523 15 21 15.4477 21 16C21 16.5523 20.5523 17 20 17H17V20C17 20.5523 16.5523 21 16 21C15.4477 21 15 20.5523 15 20V17H12C11.4477 17 11 16.5523 11 16Z" fill="#FAFAFA"/>
</svg>
