<svg width="40" height="40" viewBox="0 0 40 40" fill="none" xmlns="http://www.w3.org/2000/svg">
<path d="M26.6667 28.5733H21.3334L15.4001 32.52C15.1998 32.6535 14.9671 32.7301 14.7267 32.7417C14.4864 32.7533 14.2474 32.6994 14.0352 32.5858C13.8231 32.4722 13.6457 32.3031 13.5221 32.0966C13.3985 31.8901 13.3333 31.654 13.3334 31.4133V28.5733C9.33341 28.5733 6.66675 25.9067 6.66675 21.9067V13.9067C6.66675 9.90666 9.33341 7.23999 13.3334 7.23999H26.6667C30.6667 7.23999 33.3334 9.90666 33.3334 13.9067V21.9067C33.3334 25.9067 30.6667 28.5733 26.6667 28.5733Z" stroke="#FAFAFA" stroke-width="1.5" stroke-miterlimit="10" stroke-linecap="round" stroke-linejoin="round"/>
<path d="M20 19.1467V18.8667C20 17.9601 20.56 17.4801 21.12 17.0934C21.6666 16.7201 22.2133 16.2401 22.2133 15.3601C22.2133 14.1334 21.2266 13.1467 20 13.1467C18.7733 13.1467 17.7866 14.1334 17.7866 15.3601M19.9933 22.3334H20.0066" stroke="#FAFAFA" stroke-width="1.5" stroke-linecap="round" stroke-linejoin="round"/>
</svg>
