<svg width="40" height="40" viewBox="0 0 40 40" fill="none" xmlns="http://www.w3.org/2000/svg">
<path fill-rule="evenodd" clip-rule="evenodd" d="M27.4618 8.33337C27.4618 7.78109 27.0141 7.33337 26.4618 7.33337C25.9095 7.33337 25.4618 7.78109 25.4618 8.33337V11.2251L22.9931 9.05265C21.2809 7.51569 18.7095 7.51571 16.9974 9.05271L10.3107 14.9369L10.2882 14.9595C9.20784 16.0398 8.39526 17.6158 8.39526 19.2666V28.7333C8.39526 30.8856 10.1763 32.6666 12.3286 32.6666H27.6619C29.8822 32.6666 31.7557 30.9362 31.5953 28.6949V19.2666C31.5953 17.6721 30.9571 16.0551 29.655 14.9151L29.6538 14.914L27.4618 12.9851V8.33337ZM18.3309 10.5432C19.2839 9.68551 20.7066 9.68551 21.6597 10.5432L28.3346 16.4173L28.3367 16.4192C29.1671 17.1458 29.5953 18.195 29.5953 19.2666V28.7749L29.5987 28.8164C29.6769 29.7533 28.8937 30.6666 27.6619 30.6666H12.3286C11.2809 30.6666 10.3953 29.781 10.3953 28.7333V19.2666C10.3953 18.2601 10.9066 17.1799 11.681 16.3952L18.3226 10.5507L18.3309 10.5432Z" fill="#F665A0"/>
</svg>
