<svg width="60" height="52" viewBox="0 0 60 52" fill="none" xmlns="http://www.w3.org/2000/svg">
<path d="M21.1596 13.7047L17.4683 18.6561L22.6762 26.8667L36.5641 9.53333L41.7721 18.048L38.5641 22.0069" stroke="#FAFAFA" stroke-width="5" stroke-linecap="square"/>
<path d="M5.88159 42.7831C5.88159 42.2178 5.97505 41.6914 6.16195 41.2039C6.34886 40.713 6.61883 40.2881 6.97188 39.9293C7.3279 39.567 7.76108 39.2827 8.27131 39.0762C8.78457 38.8696 9.3646 38.7664 10.0113 38.7664C10.578 38.7664 11.0972 38.8324 11.5689 38.9644C12.0436 39.0931 12.4841 39.2911 12.8906 39.5585L12.2409 40.7773C12.1192 40.6859 11.9783 40.6047 11.8181 40.5335C11.6609 40.4625 11.4918 40.4032 11.3108 40.3559C11.1328 40.3051 10.9474 40.2661 10.7545 40.239C10.5647 40.2119 10.3762 40.1984 10.1893 40.1984C9.73842 40.1984 9.33642 40.2627 8.98333 40.3914C8.63032 40.5166 8.33214 40.6944 8.08888 40.9246C7.84857 41.1514 7.66462 41.424 7.53705 41.7422C7.41245 42.057 7.35014 42.404 7.35014 42.7831C7.35014 43.1759 7.41541 43.5365 7.54595 43.8648C7.67647 44.1932 7.8649 44.4776 8.11113 44.718C8.36032 44.9549 8.6629 45.1411 9.01895 45.2765C9.37797 45.4085 9.78293 45.4746 10.2338 45.4746C10.4385 45.4746 10.6418 45.4577 10.8435 45.4238C11.0453 45.3899 11.2396 45.3442 11.4265 45.2867C11.6163 45.2258 11.7989 45.1547 11.9738 45.0734C12.1489 44.9888 12.312 44.8974 12.4634 44.7992L13.1131 46.018C12.7333 46.2956 12.2943 46.5139 11.7958 46.673C11.2974 46.8287 10.7678 46.9066 10.2072 46.9066C9.49212 46.9066 8.8647 46.8017 8.3247 46.5918C7.78478 46.3785 7.33383 46.0873 6.97188 45.7184C6.60993 45.346 6.33699 44.9093 6.15305 44.4081C5.97208 43.9037 5.88159 43.3621 5.88159 42.7831ZM15.1335 47.5515C15.27 47.6531 15.4183 47.7428 15.5785 47.8206C15.7387 47.8986 15.9048 47.9629 16.0769 48.0137C16.2519 48.0644 16.4299 48.1017 16.6109 48.1254C16.7919 48.1524 16.9714 48.166 17.1494 48.166C17.7546 48.166 18.2204 48.017 18.5467 47.7191C18.876 47.4246 19.0407 46.9811 19.0407 46.3887V46.1855C18.925 46.2769 18.7945 46.3615 18.6491 46.4394C18.5067 46.5139 18.3524 46.5782 18.1863 46.6324C18.0231 46.6865 17.8496 46.7289 17.6656 46.7593C17.4846 46.7865 17.3007 46.8 17.1138 46.8C16.7133 46.8 16.3543 46.7339 16.0368 46.6019C15.7224 46.4665 15.4554 46.2702 15.2358 46.0129C15.0193 45.7522 14.8531 45.4323 14.7374 45.0531C14.6217 44.674 14.5639 44.2406 14.5639 43.7531V40.8078H15.8766V43.3367C15.8766 44.0611 15.9968 44.596 16.2371 44.9414C16.4804 45.2833 16.8631 45.4543 17.3852 45.4543C17.7531 45.4543 18.078 45.3815 18.3598 45.2359C18.6446 45.0869 18.8716 44.8974 19.0407 44.6672V40.8078H20.358V46.1144C20.358 46.6865 20.2867 47.1825 20.1443 47.6023C20.0019 48.0255 19.7943 48.3759 19.5213 48.6535C19.2514 48.9311 18.9191 49.1376 18.5245 49.273C18.1299 49.4118 17.6819 49.4813 17.1805 49.4813C16.6911 49.4813 16.2341 49.422 15.8099 49.3035C15.3856 49.185 14.997 49.0242 14.6439 48.821L15.1335 47.5515ZM22.0268 38.3754H23.344V41.3714C23.4597 41.2801 23.5962 41.1937 23.7534 41.1125C23.9106 41.0313 24.0798 40.9601 24.2608 40.8992C24.4417 40.8383 24.6286 40.7909 24.8214 40.757C25.0143 40.7198 25.2072 40.7012 25.4 40.7012C25.845 40.7012 26.2529 40.7756 26.6238 40.9246C26.9976 41.0736 27.318 41.2835 27.585 41.5543C27.852 41.8251 28.0597 42.1501 28.208 42.5293C28.3593 42.9051 28.435 43.3214 28.435 43.7785C28.435 44.2559 28.3563 44.6875 28.1991 45.0734C28.0419 45.4559 27.8239 45.7843 27.545 46.0585C27.2691 46.3294 26.9397 46.5393 26.557 46.6883C26.1773 46.8339 25.7649 46.9066 25.3199 46.9066C25.13 46.9066 24.9416 46.8931 24.7547 46.866C24.5708 46.8389 24.3928 46.8017 24.2207 46.7543C24.0516 46.7069 23.8914 46.651 23.7401 46.5867C23.5917 46.519 23.4597 46.4462 23.344 46.3684V46.8H22.0268V38.3754ZM23.344 44.916C23.4775 45.0379 23.6185 45.1411 23.7668 45.2258C23.9151 45.3103 24.0664 45.3798 24.2207 45.4339C24.375 45.4881 24.5307 45.5287 24.688 45.5559C24.8452 45.5795 24.998 45.5914 25.1463 45.5914C25.4489 45.5914 25.7174 45.5456 25.9518 45.4543C26.1891 45.3595 26.3879 45.2309 26.5481 45.0684C26.7113 44.9059 26.8359 44.7146 26.922 44.4945C27.0079 44.2744 27.051 44.0357 27.051 43.7785C27.051 43.5381 27.0079 43.3113 26.922 43.098C26.8389 42.8847 26.7172 42.6986 26.557 42.5394C26.3998 42.3769 26.2084 42.25 25.9829 42.1585C25.7605 42.0638 25.5098 42.0164 25.2309 42.0164C25.0529 42.0164 24.8749 42.0367 24.6969 42.0773C24.5189 42.1146 24.3468 42.1687 24.1806 42.2398C24.0174 42.3109 23.8632 42.3972 23.7178 42.4988C23.5754 42.6004 23.4509 42.7138 23.344 42.839V44.916ZM29.4051 43.7835C29.4051 43.3773 29.4778 42.9897 29.6232 42.6206C29.7685 42.2482 29.9777 41.9199 30.2507 41.6355C30.5236 41.3512 30.8574 41.1243 31.2519 40.9551C31.6495 40.7857 32.1004 40.7012 32.6048 40.7012C33.1061 40.7012 33.5571 40.7875 33.9576 40.9601C34.3611 41.1294 34.7023 41.363 34.9812 41.6609C35.263 41.9589 35.4781 42.3093 35.6264 42.7121C35.7777 43.1149 35.8534 43.5466 35.8534 44.007C35.8534 44.0646 35.8519 44.1272 35.849 44.1949C35.849 44.2593 35.846 44.3184 35.8401 44.3726H30.8737C30.93 44.552 31.0206 44.7162 31.1451 44.8652C31.2727 45.0142 31.4315 45.1428 31.6213 45.2512C31.8112 45.3595 32.0307 45.4441 32.28 45.5051C32.5292 45.5626 32.8051 45.5914 33.1077 45.5914C33.4102 45.5914 33.7114 45.5559 34.011 45.4847C34.3107 45.4103 34.597 45.3172 34.8699 45.2055L35.3149 46.3531C35.1429 46.4445 34.9678 46.5258 34.7898 46.5968C34.6148 46.6646 34.4309 46.7221 34.238 46.7695C34.0481 46.8135 33.8479 46.8474 33.6373 46.871C33.4295 46.8948 33.21 46.9066 32.9786 46.9066C32.3882 46.9066 31.8705 46.8254 31.4255 46.6629C30.9805 46.5004 30.6082 46.2786 30.3085 45.9976C30.0089 45.7166 29.7834 45.3865 29.6321 45.0074C29.4808 44.6282 29.4051 44.2203 29.4051 43.7835ZM34.4561 43.1996C34.4086 43.0337 34.3344 42.8797 34.2335 42.7375C34.1356 42.5919 34.0125 42.4666 33.8642 42.3617C33.7159 42.2534 33.5438 42.1687 33.348 42.1078C33.1522 42.0468 32.9371 42.0164 32.7027 42.0164C32.4535 42.0164 32.2265 42.0486 32.0218 42.1129C31.8171 42.1772 31.6376 42.2635 31.4833 42.3718C31.3291 42.4802 31.2 42.6055 31.0962 42.7476C30.9953 42.8898 30.9212 43.0405 30.8737 43.1996H34.4561ZM37.273 40.8078H38.5902V41.671C38.881 41.424 39.1881 41.2107 39.5114 41.0313C39.8348 40.8518 40.1567 40.7147 40.4771 40.6199L40.8643 41.996C40.357 42.0536 39.9104 42.1839 39.5248 42.3871C39.1421 42.5868 38.8306 42.8695 38.5902 43.2351V46.8H37.273V40.8078ZM41.6342 42.1992H45.715V43.3265H41.6342V42.1992ZM47.3615 44.9617C47.7175 45.2055 48.1092 45.3849 48.5363 45.5C48.9636 45.6151 49.4012 45.6726 49.8492 45.6726C50.1518 45.6726 50.4039 45.649 50.6057 45.6015C50.8074 45.5541 50.9691 45.4932 51.0907 45.4187C51.2124 45.3442 51.2984 45.2596 51.3489 45.1648C51.3993 45.07 51.4245 44.9736 51.4245 44.8754C51.4245 44.7331 51.3696 44.6113 51.2599 44.5097C51.1531 44.4081 50.9751 44.3574 50.7259 44.3574C50.6101 44.3574 50.4856 44.3659 50.352 44.3828C50.2185 44.3997 50.0776 44.4184 49.9292 44.4387C49.7839 44.4556 49.6311 44.4725 49.4709 44.4894C49.3137 44.5063 49.1535 44.5148 48.9903 44.5148C48.6343 44.5148 48.3302 44.4708 48.078 44.3828C47.8288 44.2948 47.6255 44.1746 47.4683 44.0222C47.3111 43.8699 47.1969 43.6905 47.1256 43.4839C47.0545 43.274 47.0189 43.049 47.0189 42.8085C47.0189 42.5039 47.0811 42.2229 47.2058 41.9656C47.3304 41.7083 47.5083 41.4865 47.7398 41.3004C47.9712 41.1107 48.2501 40.9635 48.5764 40.8585C48.9057 40.7536 49.2721 40.7012 49.6756 40.7012C49.8862 40.7012 50.1058 40.7164 50.3342 40.7468C50.5656 40.774 50.7926 40.8111 51.0151 40.8585C51.2376 40.9059 51.4512 40.9618 51.6559 41.0262C51.8606 41.0871 52.0416 41.1531 52.1988 41.2242L51.785 42.3922C51.4497 42.25 51.1145 42.1383 50.7793 42.057C50.447 41.9724 50.1043 41.9301 49.7513 41.9301C49.505 41.9301 49.2958 41.952 49.1238 41.996C48.9547 42.0367 48.8167 42.0926 48.7099 42.1637C48.6031 42.2313 48.5245 42.3109 48.474 42.4023C48.4266 42.4903 48.4029 42.5835 48.4029 42.6816C48.4029 42.7527 48.4147 42.817 48.4384 42.8746C48.4652 42.9321 48.5067 42.9829 48.5631 43.0269C48.6224 43.0676 48.698 43.0997 48.79 43.1234C48.8849 43.1437 49.0007 43.1539 49.1372 43.1539C49.2617 43.1539 49.3938 43.1454 49.5332 43.1285C49.6726 43.1115 49.818 43.0946 49.9693 43.0777C50.1206 43.0574 50.2764 43.0388 50.4366 43.0218C50.5997 43.0049 50.7659 42.9964 50.935 42.9964C51.2495 42.9964 51.5239 43.0388 51.7582 43.1234C51.9956 43.2081 52.1915 43.3265 52.3457 43.4789C52.5 43.6313 52.6156 43.8107 52.6928 44.0172C52.77 44.2236 52.8085 44.4488 52.8085 44.6926C52.8085 45.0074 52.7447 45.3002 52.6172 45.571C52.4896 45.8419 52.2997 46.0772 52.0475 46.2769C51.7954 46.4732 51.4809 46.6273 51.1041 46.739C50.7303 46.8508 50.2971 46.9066 49.8047 46.9066C49.502 46.9066 49.2098 46.8846 48.928 46.8406C48.6461 46.8 48.3777 46.7441 48.1225 46.673C47.8674 46.5986 47.6271 46.5122 47.4016 46.414C47.179 46.3159 46.9759 46.2109 46.7919 46.0992L47.3615 44.9617Z" fill="#FAFAFA"/>
</svg>
