<svg width="32" height="32" viewBox="0 0 32 32" fill="none" xmlns="http://www.w3.org/2000/svg">
<path fill-rule="evenodd" clip-rule="evenodd" d="M16.0667 4.79993C11.419 4.79993 7.60001 8.61889 7.60001 13.2666V18.0666C7.60001 18.4553 7.69763 18.8673 7.83683 19.4241C7.86269 19.5275 7.87141 19.6313 7.86479 19.7323C7.89104 20.1225 7.68567 20.5085 7.31403 20.6943C7.17464 20.7641 7.06759 20.8179 6.97961 20.8682C6.93752 20.8922 6.91027 20.9097 6.89412 20.9209L6.89271 20.9218C6.5974 21.2271 6.40015 21.7414 6.40015 22.3333C6.40015 23.381 7.28576 24.2666 8.33348 24.2666H23.6667C24.2683 24.2666 24.7897 24.0629 25.093 23.7595C25.3963 23.4561 25.6001 22.9347 25.6001 22.3333C25.6001 21.6615 25.2882 21.1555 24.7297 20.7771C24.5569 20.6673 24.4239 20.5074 24.3457 20.3227C24.2825 20.1735 24.2549 20.0081 24.271 19.8394C24.2763 19.7827 24.2865 19.7262 24.3017 19.6706C24.4382 19.1239 24.5334 18.7173 24.5334 18.3333V13.5333C24.5334 12.981 24.9811 12.5333 25.5334 12.5333C26.0857 12.5333 26.5334 12.981 26.5334 13.5333V18.3333C26.5334 18.7569 26.4674 19.1713 26.3869 19.5471C27.1145 20.2258 27.6002 21.1613 27.6002 22.3333C27.6002 23.3318 27.2706 24.4103 26.5073 25.1737C25.7439 25.937 24.6653 26.2666 23.6667 26.2666H19.6021C19.1533 27.9438 17.6075 29.1999 15.8001 29.1999C13.9926 29.1999 12.4469 27.9438 11.9981 26.2666H8.33348C6.1812 26.2666 4.40015 24.4855 4.40015 22.3333C4.40015 21.3347 4.72973 20.2561 5.49304 19.4929C5.57385 19.4121 5.66224 19.3419 5.74705 19.2825C5.66624 18.9062 5.60001 18.4909 5.60001 18.0666V13.2666C5.60001 7.51431 10.3144 2.79993 16.0667 2.79993C16.619 2.79993 17.0667 3.24765 17.0667 3.79993C17.0667 4.35222 16.619 4.79993 16.0667 4.79993ZM14.1553 26.2666C14.4995 26.8214 15.1151 27.1999 15.8001 27.1999C16.485 27.1999 17.1007 26.8214 17.4449 26.2666H14.1553ZM19.0667 6.73326C19.0667 4.71431 20.7145 3.06659 22.7334 3.06659C24.7525 3.06659 26.4001 4.71431 26.4001 6.73326C26.4001 8.75222 24.7525 10.3999 22.7334 10.3999C20.5483 10.3999 19.0667 8.71885 19.0667 6.73326ZM22.7334 5.06659C21.8191 5.06659 21.0667 5.81889 21.0667 6.73326C21.0667 7.68101 21.7186 8.39993 22.7334 8.39993C23.6478 8.39993 24.4001 7.64765 24.4001 6.73326C24.4001 5.81889 23.6478 5.06659 22.7334 5.06659Z" fill="#FAFAFA"/>
</svg>
