<svg width="32" height="32" viewBox="0 0 32 32" fill="none" xmlns="http://www.w3.org/2000/svg">
<path fill-rule="evenodd" clip-rule="evenodd" d="M22.6641 27.864C22.3974 27.864 22.1307 27.864 21.8641 27.7306L16.3974 24.7973C15.9974 24.664 15.8641 24.7973 15.8641 24.7973L10.2641 27.7306C9.46408 27.9973 8.79741 27.864 8.26408 27.464C7.73074 27.064 7.46408 26.3973 7.59741 25.7306L8.66408 19.5973V19.464L4.13075 15.064C3.59741 14.5306 3.46408 13.7306 3.73075 13.0639C3.99741 12.3973 4.53075 11.8639 5.33075 11.7306L11.5974 10.9306L14.3974 5.19728C14.6641 4.66395 15.1974 4.13062 15.8641 4.13062C16.6641 4.13062 17.3307 4.39728 17.7307 5.06395L20.5307 10.9306L26.7974 11.8639C27.4641 11.9973 27.9974 12.3973 28.2641 13.0639C28.5307 13.7306 28.3974 14.3973 27.9974 14.9306L27.8641 15.064L23.3307 19.5973L24.3974 25.7306C24.5307 26.3973 24.2641 27.064 23.7307 27.464C23.4641 27.7306 23.0641 27.864 22.6641 27.864ZM15.8641 22.7973C16.2641 22.7973 16.5307 22.7973 16.9307 22.9306L17.1974 23.064L22.5307 25.864L21.4641 19.7306C21.4641 19.464 21.4641 18.5306 22.1307 18.1306L26.3974 13.864L19.8641 12.9306C19.5974 12.7973 19.0641 12.5306 18.7974 11.9973L16.1307 6.39728L13.4641 11.9973C13.0641 12.2639 12.6641 12.7973 11.8641 12.9306L5.73075 13.7306L10.1307 18.1306C10.6641 18.664 10.6641 19.3306 10.6641 19.5973V19.7306L9.59741 25.7306L14.9307 22.9306C15.1974 22.7973 15.5974 22.7973 15.8641 22.7973Z" fill="#FAFAFA"/>
</svg>
