<svg width="40" height="40" viewBox="0 0 40 40" fill="none" xmlns="http://www.w3.org/2000/svg">
<path d="M32.7053 25.24C32.492 24.88 31.892 24.32 30.3986 24.5867C29.572 24.7333 28.732 24.8 27.892 24.76C26.3938 24.6921 24.9245 24.3243 23.571 23.6784C22.2175 23.0326 21.0073 22.1218 20.012 21C18.2786 19.0667 17.212 16.5467 17.1986 13.8267C17.1986 12.3067 17.492 10.84 18.092 9.45333C18.6786 8.10666 18.2653 7.39999 17.972 7.10666C17.6653 6.79999 16.9453 6.37333 15.532 6.95999C10.0786 9.25333 6.7053 14.72 7.1053 20.5733C7.5053 26.08 11.372 30.7867 16.492 32.56C17.7332 32.9931 19.0317 33.2402 20.3453 33.2933C20.5586 33.3067 20.772 33.32 20.9853 33.32C25.452 33.32 29.6386 31.2133 32.2786 27.6267C33.172 26.3867 32.932 25.6 32.7053 25.24Z" fill="#F665A0"/>
</svg>
