<svg width="32" height="32" viewBox="0 0 32 32" fill="none" xmlns="http://www.w3.org/2000/svg">
<path fill-rule="evenodd" clip-rule="evenodd" d="M7 8.66667C7 7.75228 7.75228 7 8.66667 7H11.3333C12.2477 7 13 7.75228 13 8.66667V13H8.66667C7.75228 13 7 12.2477 7 11.3333V8.66667ZM8.66667 5C6.64772 5 5 6.64772 5 8.66667V11.3333C5 13.3523 6.64772 15 8.66667 15H15V8.66667C15 6.64772 13.3523 5 11.3333 5H8.66667ZM19 8.66667C19 7.75228 19.7523 7 20.6667 7H23.3333C24.2477 7 25 7.75228 25 8.66667V11.3333C25 12.2477 24.2477 13 23.3333 13H19V8.66667ZM20.6667 5C18.6477 5 17 6.64772 17 8.66667V15H23.3333C25.3523 15 27 13.3523 27 11.3333V8.66667C27 6.64772 25.3523 5 23.3333 5H20.6667ZM8.66667 19C7.75228 19 7 19.7523 7 20.6667V23.3333C7 24.2477 7.75228 25 8.66667 25H11.3333C12.2477 25 13 24.2477 13 23.3333V19H8.66667ZM5 20.6667C5 18.6477 6.64772 17 8.66667 17H15V23.3333C15 25.3523 13.3523 27 11.3333 27H8.66667C6.64772 27 5 25.3523 5 23.3333V20.6667ZM23.3333 17H17V23.3333C17 25.3523 18.6477 27 20.6667 27H23.3333C25.3523 27 27 25.3523 27 23.3333V20.6667C27 18.6477 25.3523 17 23.3333 17ZM19 23.3333V19H23.3333C24.2477 19 25 19.7523 25 20.6667V23.3333C25 24.2477 24.2477 25 23.3333 25H20.6667C19.7523 25 19 24.2477 19 23.3333Z" fill="#FAFAFA"/>
</svg>
